<svg width="40" height="40" fill="none" xmlns="http://www.w3.org/2000/svg"><path d="M32 5H8a3 3 0 00-3 3v24a3 3 0 003 3h24a3 3 0 003-3V8a3 3 0 00-3-3z" stroke="#fff" stroke-width="2"></path><path d="M9 9h.01M12 9h.01M15 9h.01" stroke="#fff" stroke-width="2" stroke-linecap="round" stroke-linejoin="round"></path><path d="M14 26v-3h12v3H14z" fill="#fff" stroke="#fff" stroke-width="2" stroke-linecap="round" stroke-linejoin="round"></path><path opacity="0.4" d="M13 19h-1a2 2 0 00-2 2v1m17-3h1a2 2 0 012 2v1M13 30h-1a2 2 0 01-2-2v-1m17 3h1a2 2 0 002-2v-1" stroke="#fff" stroke-width="2" stroke-linecap="round" stroke-linejoin="round"></path></svg>