<svg width="40" height="40" fill="none" xmlns="http://www.w3.org/2000/svg"><path d="M32 8H8a3 3 0 00-3 3v21a3 3 0 003 3h24a3 3 0 003-3V11a3 3 0 00-3-3z" stroke="#fff" stroke-width="2"></path><path d="M5 11a3 3 0 013-3h24a3 3 0 013 3v3H5v-3z" fill="#fff" stroke="#fff" stroke-width="2"></path><path d="M11 5v4M29 5v4" stroke="#fff" stroke-width="2" stroke-linecap="round"></path><path d="M10 22v-2h2v2h-2zM10 29v-2h2v2h-2zM16 22v-2h2v2h-2zM16 29v-2h2v2h-2z" fill="#fff" stroke="#fff" stroke-width="2" stroke-linecap="round" stroke-linejoin="round"></path><path opacity="0.4" d="M22 22v-2h2v2h-2z" fill="#fff" stroke="#fff" stroke-width="2" stroke-linecap="round" stroke-linejoin="round"></path><path d="M22 29v-2h2v2h-2zM28 22v-2h2v2h-2z" fill="#fff" stroke="#fff" stroke-width="2" stroke-linecap="round" stroke-linejoin="round"></path></svg>